# xmcd
#
# Track frame offsets: 
#        150
#        12218
#        26185
#        34934
#        51841
#        69890
#        86880
#        97749
#        111777
#        133300
#        145937
#
# Disc length: 2139 seconds
#
# Revision: 0
# Processed by: cddbd v1.5.2PL0 Copyright (c) Steve Scherf et al.
# Submitted via: ExactAudioCopy v0.99pb3
#
DISCID=9408590b
DTITLE=Liz Mandeville  - Clarksdale
DYEAR=2012
DGENRE=Blues
TTITLE0=Roadside Produce Stand
TTITLE1=Mama and Daddy Blues
TTITLE2=No Fear - Everything
TTITLE3=Walking and Talking With You
TTITLE4=A Soldiers Wife
TTITLE5=Clarksdale - Riverside Hotel Blues
TTITLE6=Bye Bye Blues
TTITLE7=Sweet Potato Pie
TTITLE8=4.20 Blues
TTITLE9=Sand Baggin
TTITLE10=My Mama Wears Combat Boots
EXTD=
EXTT0=
EXTT1=
EXTT2=
EXTT3=
EXTT4=
EXTT5=
EXTT6=
EXTT7=
EXTT8=
EXTT9=
EXTT10=
PLAYORDER=
